# xmcd
#
# Track frame offsets: 
#        150
#        10074
#        21914
#        30878
#        43839
#        54079
#        66374
#        75961
#        85564
#        95339
#        104350
#        113798
#        123074
#        133167
#        144447
#        152126
#        163790
#        173170
#        186154
#        199726
#        211954
#        222198
#        232816
#        245232
#        259231
#        269690
#        279060
#
# Disc length: 3844 seconds
#
# Revision: 1
# Processed by: cddbd v1.5.2PL0 Copyright (c) Steve Scherf et al.
# Submitted via: ExactAudioCopyFreeDBPlugin 1.0
#
DISCID=6b0f021b
DTITLE=Jim Reeves - Welcome To My World - CD 05
DYEAR=2001
DGENRE=Country
TTITLE0=Charmaine
TTITLE1=Mona Lisa
TTITLE2=Marie
TTITLE3=Goodnight Irene
TTITLE4=Linda
TTITLE5=Maria Elena
TTITLE6=My Mary
TTITLE7=Ramona
TTITLE8=Margie
TTITLE9=My Juantia
TTITLE10=Sweet Sue, Just You
TTITLE11=Overnight
TTITLE12=Blue Boy
TTITLE13=How Long Has It Been
TTITLE14=Teach Me How To Pray
TTITLE15=An Evening Prayer
TTITLE16=The Padre Of Old San Antone
TTITLE17=Suppertime
TTITLE18=It Is No Secret
TTITLE19=God Be With You
TTITLE20=A Beautiful Life
TTITLE21=In The Garden
TTITLE22=Precious Memories
TTITLE23=Whispering Hope
TTITLE24=The Flowers, The Sunset, The Trees
TTITLE25=I'd Like To Be
TTITLE26=Billy Bayou
EXTD=
EXTT0=
EXTT1=
EXTT2=
EXTT3=
EXTT4=
EXTT5=
EXTT6=
EXTT7=
EXTT8=
EXTT9=
EXTT10=
EXTT11=
EXTT12=
EXTT13=
EXTT14=
EXTT15=
EXTT16=
EXTT17=
EXTT18=
EXTT19=
EXTT20=
EXTT21=
EXTT22=
EXTT23=
EXTT24=
EXTT25=
EXTT26=
PLAYORDER=
